<svg preserveAspectRatio="none" width="100%" height="100%" overflow="visible" style="display: block;" viewBox="0 0 32 32" fill="none" xmlns="http://www.w3.org/2000/svg">
<g id="229-kazakhstan 1" clip-path="url(#clip0_0_90)">
<path id="Vector" d="M16 32C24.8366 32 32 24.8366 32 16C32 7.16344 24.8366 0 16 0C7.16344 0 0 7.16344 0 16C0 24.8366 7.16344 32 16 32Z" fill="var(--fill-0, #338AF3)"/>
<path id="Vector_2" d="M25.0401 16.1739H6.95312C6.95312 17.4226 8.04069 18.4348 9.28925 18.4348H9.214C9.214 19.6835 10.2262 20.6957 11.4749 20.6957C11.4749 21.9444 12.4871 22.9566 13.7358 22.9566H18.2575C19.5062 22.9566 20.5184 21.9444 20.5184 20.6957C21.7671 20.6957 22.7793 19.6835 22.7793 18.4348H22.704C23.9524 18.4348 25.0401 17.4226 25.0401 16.1739Z" fill="var(--fill-0, #FFDA44)"/>
<path id="Vector_3" d="M22.2639 13.2174C22.2639 16.6751 19.4608 19.4783 16.0031 19.4783C12.5452 19.4783 9.74219 16.6751 9.74219 13.2174" fill="var(--fill-0, #338AF3)"/>
<path id="Vector_4" d="M20.7831 13.2174L18.8291 14.1366L19.8696 16.0291L17.7478 15.6231L17.4789 17.7666L16.0009 16.1901L14.5229 17.7666L14.2541 15.6231L12.1322 16.0289L13.1727 14.1365L11.2188 13.2174L13.1728 12.2983L12.1322 10.4058L14.2541 10.8117L14.523 8.66819L16.0009 10.2448L17.4789 8.66819L17.7478 10.8117L19.8697 10.4058L18.8291 12.2983L20.7831 13.2174Z" fill="var(--fill-0, #FFDA44)"/>
</g>
<defs>
<clipPath id="clip0_0_90">
<rect width="32" height="32" fill="white"/>
</clipPath>
</defs>
</svg>
