<svg preserveAspectRatio="none" width="100%" height="100%" overflow="visible" style="display: block;" viewBox="0 0 32 32" fill="none" xmlns="http://www.w3.org/2000/svg">
<g id="154-turkey 1" clip-path="url(#clip0_0_62)">
<path id="Vector" d="M16 32C24.8366 32 32 24.8366 32 16C32 7.16344 24.8366 0 16 0C7.16344 0 0 7.16344 0 16C0 24.8366 7.16344 32 16 32Z" fill="var(--fill-0, #D80027)"/>
<g id="Group">
<path id="Vector_2" d="M15.3463 13.0741L16.6591 14.8832L18.7851 14.1938L17.4703 16.0013L18.7829 17.8103L16.6576 17.1183L15.3428 18.9258L15.3441 16.6908L13.2188 15.9987L15.3449 15.3094L15.3463 13.0741Z" fill="var(--fill-0, #F0F0F0)"/>
<path id="Vector_3" d="M11.7653 20.5217C9.268 20.5217 7.2435 18.4973 7.2435 16C7.2435 13.5027 9.268 11.4782 11.7653 11.4782C12.5439 11.4782 13.2765 11.6752 13.9161 12.0218C12.9127 11.0404 11.5404 10.4347 10.0261 10.4347C6.9525 10.4347 4.46094 12.9264 4.46094 15.9999C4.46094 19.0735 6.95256 21.5651 10.0261 21.5651C11.5405 21.5651 12.9128 20.9594 13.9161 19.9781C13.2765 20.3248 12.5439 20.5217 11.7653 20.5217Z" fill="var(--fill-0, #F0F0F0)"/>
</g>
</g>
<defs>
<clipPath id="clip0_0_62">
<rect width="32" height="32" fill="white"/>
</clipPath>
</defs>
</svg>
