<svg preserveAspectRatio="none" width="100%" height="100%" overflow="visible" style="display: block;" viewBox="0 0 32 32" fill="none" xmlns="http://www.w3.org/2000/svg">
<g id="195-united arab emirates 1" clip-path="url(#clip0_0_67)">
<path id="Vector" d="M16 32C24.8366 32 32 24.8366 32 16C32 7.16344 24.8366 0 16 0C7.16344 0 0 7.16344 0 16C0 24.8366 7.16344 32 16 32Z" fill="var(--fill-0, #F0F0F0)"/>
<path id="Vector_2" d="M9.04688 21.5652L10.4382 31.0049C12.1714 31.6481 14.0463 32 16.0034 32C22.8828 32 28.7475 27.658 31.0081 21.5652H9.04688Z" fill="var(--fill-0, black)"/>
<path id="Vector_3" d="M9.04688 10.4348L10.4382 0.995062C12.1714 0.351875 14.0463 0 16.0034 0C22.8828 0 28.7475 4.342 31.0081 10.4348H9.04688Z" fill="var(--fill-0, #6DA544)"/>
<path id="Vector_4" d="M0 16C0 22.8794 4.34206 28.7441 10.4348 31.0048V0.995188C4.34206 3.25588 0 9.12056 0 16Z" fill="var(--fill-0, #A2001D)"/>
</g>
<defs>
<clipPath id="clip0_0_67">
<rect width="32" height="32" fill="white"/>
</clipPath>
</defs>
</svg>
