<svg preserveAspectRatio="none" width="100%" height="100%" overflow="visible" style="display: block;" viewBox="0 0 24 24" fill="none" xmlns="http://www.w3.org/2000/svg">
<g id="bill (1) 1">
<path id="Vector" d="M17.4098 3.5H6.5902C5.16018 3.5 4 4.54412 4 5.83109V19.8906C4 20.1213 4.14163 20.3337 4.37774 20.4369C4.60706 20.5401 4.88364 20.5158 5.08599 20.3702L7.12311 18.9557L9.15347 20.3702C9.3963 20.5401 9.73357 20.5401 9.97639 20.3702L12.0068 18.9557L14.0371 20.3702C14.2799 20.5401 14.6172 20.5401 14.8668 20.3702L16.8836 18.9557L18.914 20.3702C19.0354 20.4552 19.1771 20.4976 19.3255 20.4976C19.4267 20.4976 19.5278 20.4794 19.6223 20.4369C19.8584 20.3337 20 20.1213 20 19.8906V5.83109C20 4.54412 18.8398 3.5 17.4098 3.5ZM12 11.3918C13.3086 11.3918 14.3676 12.357 14.3676 13.5468C14.3676 14.5181 13.6526 15.3316 12.6745 15.5987V15.6412C12.6745 15.9751 12.371 16.2482 12 16.2482C11.629 16.2482 11.3255 15.9751 11.3255 15.6412V15.5987C10.3474 15.3316 9.63237 14.5181 9.63237 13.5468C9.63237 13.2069 9.92917 12.9398 10.3069 12.9398C10.6779 12.9398 10.9814 13.2069 10.9814 13.5468C10.9814 14.0628 11.4401 14.4817 12 14.4817C12.5599 14.4817 13.0186 14.0628 13.0186 13.5468C13.0186 13.0248 12.5599 12.6059 12 12.6059C10.6914 12.6059 9.63237 11.6406 9.63237 10.4508C9.63237 9.47952 10.3474 8.66608 11.3255 8.39897V8.35647C11.3255 8.0226 11.629 7.74941 12 7.74941C12.371 7.74941 12.6745 8.0226 12.6745 8.35647V8.39897C13.6526 8.66608 14.3676 9.47952 14.3676 10.4508C14.3676 10.7908 14.0708 11.0579 13.6931 11.0579C13.3221 11.0579 13.0186 10.7908 13.0186 10.4508C13.0186 9.93481 12.5599 9.51594 12 9.51594C11.4401 9.51594 10.9814 9.93481 10.9814 10.4508C10.9814 10.9729 11.4401 11.3918 12 11.3918Z" fill="var(--fill-0, white)"/>
</g>
</svg>
