<svg preserveAspectRatio="none" width="100%" height="100%" overflow="visible" style="display: block;" viewBox="0 0 20.299 21.5312" fill="none" xmlns="http://www.w3.org/2000/svg">
<g id="Group">
<path id="Vector" d="M0.9689 6.5H19.3269C19.5508 6.5 19.7641 6.40778 19.9176 6.24528C20.0712 6.08278 20.1508 5.86422 20.1382 5.64078L20.1281 5.42994C19.996 3.29631 18.2126 1.625 16.0672 1.625H15.0231V0.8125C15.0231 0.364 14.6591 0 14.2106 0C13.7621 0 13.3981 0.364 13.3981 0.8125V1.625H6.89812V0.8125C6.89812 0.364 6.53412 0 6.08562 0C5.63712 0 5.27312 0.364 5.27312 0.8125V1.625H4.22906C2.08365 1.625 0.299807 3.29672 0.167776 5.43156L0.157619 5.64119C0.144619 5.86422 0.22465 6.08278 0.377807 6.24569C0.530963 6.40859 0.745463 6.5 0.9689 6.5Z" fill="var(--fill-0, white)"/>
<path id="Vector_2" d="M20.2668 8.91719C20.2563 8.47641 19.8955 8.125 19.4547 8.125H0.844434C0.403653 8.125 0.0433091 8.47641 0.0319341 8.91719C-0.0407846 11.828 0.0108092 14.7286 0.185497 17.5394C0.312247 19.5788 1.94578 21.2119 3.98434 21.3387C6.03022 21.4671 8.0899 21.5312 10.1496 21.5312C12.2089 21.5312 14.2694 21.4671 16.314 21.3383C18.3534 21.2115 19.9865 19.578 20.1137 17.539C20.2884 14.7286 20.34 11.8276 20.2668 8.91719ZM14.2121 13C13.5389 13 12.9933 12.4544 12.9933 11.7812C12.9933 11.1081 13.5389 10.5625 14.2121 10.5625C14.8852 10.5625 15.4308 11.1081 15.4308 11.7812C15.4308 12.4544 14.8852 13 14.2121 13ZM15.4308 15.8438C15.4308 16.5169 14.8852 17.0625 14.2121 17.0625C13.5389 17.0625 12.9933 16.5169 12.9933 15.8438C12.9933 15.1706 13.5389 14.625 14.2121 14.625C14.8852 14.625 15.4308 15.1706 15.4308 15.8438ZM6.08709 14.625C6.76025 14.625 7.30584 15.1706 7.30584 15.8438C7.30584 16.5169 6.76025 17.0625 6.08709 17.0625C5.41393 17.0625 4.86834 16.5169 4.86834 15.8438C4.86834 15.1706 5.41393 14.625 6.08709 14.625ZM4.86834 11.7812C4.86834 11.1081 5.41393 10.5625 6.08709 10.5625C6.76025 10.5625 7.30584 11.1081 7.30584 11.7812C7.30584 12.4544 6.76025 13 6.08709 13C5.41393 13 4.86834 12.4544 4.86834 11.7812ZM8.93084 15.8438C8.93084 15.1706 9.47643 14.625 10.1496 14.625C10.8227 14.625 11.3683 15.1706 11.3683 15.8438C11.3683 16.5169 10.8227 17.0625 10.1496 17.0625C9.47643 17.0625 8.93084 16.5169 8.93084 15.8438ZM10.1496 13C9.47643 13 8.93084 12.4544 8.93084 11.7812C8.93084 11.1081 9.47643 10.5625 10.1496 10.5625C10.8227 10.5625 11.3683 11.1081 11.3683 11.7812C11.3683 12.4544 10.8227 13 10.1496 13Z" fill="var(--fill-0, white)"/>
</g>
</svg>
