<svg preserveAspectRatio="none" width="100%" height="100%" overflow="visible" style="display: block;" viewBox="0 0 26 15.4984" fill="none" xmlns="http://www.w3.org/2000/svg">
<g id="Group">
<path id="Vector" d="M13 0C8.03242 0 3.52756 2.71781 0.203437 7.13225C-0.0678122 7.49391 -0.0678122 7.99918 0.203437 8.36085C3.52756 12.7806 8.03242 15.4984 13 15.4984C17.9676 15.4984 22.4724 12.7806 25.7966 8.36616C26.0678 8.0045 26.0678 7.49923 25.7966 7.13757C22.4724 2.71781 17.9676 0 13 0ZM13.3563 13.2061C10.0588 13.4135 7.33569 10.6957 7.54311 7.39286C7.71331 4.66973 9.92053 2.46251 12.6437 2.29232C15.9412 2.08489 18.6643 4.8027 18.4569 8.10555C18.2814 10.8234 16.0742 13.0306 13.3563 13.2061ZM13.1915 10.6851C11.4151 10.7968 9.94712 9.33415 10.0641 7.55774C10.1545 6.0898 11.3459 4.90375 12.8138 4.80802C14.5903 4.69633 16.0582 6.15894 15.9412 7.93536C15.8455 9.40861 14.6541 10.5947 13.1915 10.6851Z" fill="var(--fill-0, white)"/>
</g>
</svg>
