<svg preserveAspectRatio="none" width="100%" height="100%" overflow="visible" style="display: block;" viewBox="0 0 24 24" fill="none" xmlns="http://www.w3.org/2000/svg">
<g id="Layer 2">
<path id="Vector" d="M21.8591 3.156C20.1439 1.2 16.4618 0 12 0C7.53823 0 3.85607 1.2 2.14093 3.156C-0.713643 6.468 -0.713643 17.556 2.14093 20.844C3.85607 22.8 7.53823 24 12 24C16.4618 24 20.1439 22.8 21.8591 20.844C24.7136 17.532 24.7136 6.468 21.8591 3.156ZM12 5.7C12.2965 5.7 12.5864 5.78797 12.8329 5.9528C13.0795 6.11762 13.2717 6.35189 13.3851 6.62597C13.4986 6.90006 13.5283 7.20166 13.4704 7.49264C13.4126 7.78361 13.2698 8.05088 13.0601 8.26066C12.8505 8.47044 12.5833 8.6133 12.2925 8.67118C12.0017 8.72906 11.7002 8.69935 11.4263 8.58582C11.1523 8.47229 10.9182 8.28003 10.7534 8.03336C10.5887 7.78668 10.5007 7.49667 10.5007 7.2C10.5007 6.80218 10.6587 6.42064 10.9399 6.13934C11.221 5.85804 11.6024 5.7 12 5.7ZM13.1994 18.6H10.8006C10.4825 18.6 10.1774 18.4736 9.9525 18.2485C9.72756 18.0235 9.6012 17.7183 9.6012 17.4C9.6012 17.0817 9.72756 16.7765 9.9525 16.5515C10.1774 16.3264 10.4825 16.2 10.8006 16.2V12.6C10.4825 12.6 10.1774 12.4736 9.9525 12.2485C9.72756 12.0235 9.6012 11.7183 9.6012 11.4C9.6012 11.0817 9.72756 10.7765 9.9525 10.5515C10.1774 10.3264 10.4825 10.2 10.8006 10.2H12C12.3181 10.2 12.6232 10.3264 12.8481 10.5515C13.073 10.7765 13.1994 11.0817 13.1994 11.4V16.2C13.5175 16.2 13.8226 16.3264 14.0475 16.5515C14.2724 16.7765 14.3988 17.0817 14.3988 17.4C14.3988 17.7183 14.2724 18.0235 14.0475 18.2485C13.8226 18.4736 13.5175 18.6 13.1994 18.6Z" fill="url(#paint0_linear_0_4)"/>
</g>
<defs>
<linearGradient id="paint0_linear_0_4" x1="-6.29251" y1="12.0022" x2="32.9028" y2="12.0022" gradientUnits="userSpaceOnUse">
<stop stop-color="#2C64EB"/>
<stop offset="0.5" stop-color="#00A875"/>
<stop offset="1" stop-color="#71B219"/>
</linearGradient>
</defs>
</svg>
