<svg preserveAspectRatio="none" width="100%" height="100%" overflow="visible" style="display: block;" viewBox="0 0 119.995 40" fill="none" xmlns="http://www.w3.org/2000/svg">
<g id="Group">
<path id="Vector" d="M58.9766 39.5256V22.7024H63.5848V39.5378H58.9766V39.5256Z" fill="var(--fill-0, #71B219)"/>
<path id="Vector_2" d="M67.1724 31.1199C67.1724 29.9538 67.4005 28.7877 67.8685 27.7188C68.3126 26.6742 68.9487 25.7267 69.7408 24.9251C70.5569 24.1234 71.5291 23.4796 72.5972 23.0545C74.8775 22.1313 77.4219 22.1313 79.7022 23.0545C80.7584 23.4796 81.7185 24.1112 82.5346 24.9129C83.3267 25.7024 83.9508 26.6499 84.3829 27.6945C84.8389 28.7756 85.067 29.9417 85.067 31.1199C85.079 32.286 84.8389 33.4521 84.3829 34.521C83.9388 35.5656 83.3027 36.5131 82.5106 37.3147C81.6945 38.1164 80.7224 38.7481 79.6662 39.1732C77.0258 40.2421 74.0494 40.0599 71.5411 38.6873C68.8167 37.1811 67.1364 34.2659 67.1724 31.1199ZM71.9011 31.1199C71.8771 32.3103 72.3092 33.4521 73.1133 34.3266C73.8814 35.2012 74.9976 35.6992 76.1617 35.6628C77.4099 35.6628 78.43 35.2255 79.2102 34.3388C80.7944 32.4925 80.7824 29.7352 79.1861 27.901C78.406 27.0143 77.2899 26.5284 76.1137 26.5649C74.9615 26.5284 73.8454 27.0143 73.0773 27.8889C72.2852 28.7756 71.8651 29.9295 71.9011 31.1199Z" fill="var(--fill-0, #71B219)"/>
<path id="Vector_3" d="M89.0312 39.5256V22.7024H93.3399L100.169 31.6059V22.7024H104.729V39.5378H100.697L93.5919 30.3184V39.5378H89.0312V39.5256Z" fill="var(--fill-0, #71B219)"/>
<path id="Vector_4" d="M28.9246 28.8243V32.2619C28.9246 33.4279 28.6486 34.3025 28.1085 34.8856C27.5684 35.4686 26.8003 35.7601 25.8282 35.7601C24.856 35.7601 24.0999 35.4565 23.5598 34.8491C23.0078 34.2418 22.7437 33.3429 22.7437 32.1525V22.7024H18.0391V32.2376C18.0391 34.837 18.7232 36.7805 20.0794 38.068C21.4355 39.3556 23.3438 39.9993 25.7922 39.9993C26.8843 40.0115 27.9885 39.8536 29.0326 39.5256C29.9447 39.2341 30.7849 38.7604 31.505 38.1166C32.2251 37.4364 32.7772 36.5982 33.0892 35.6508C33.4732 34.509 33.6653 33.3186 33.6413 32.104V28.8122L28.9246 28.8243Z" fill="var(--fill-0, #71B219)"/>
<path id="Vector_5" d="M33.6067 22.7024H28.9141V27.4517H33.6067V22.7024Z" fill="var(--fill-0, #539100)"/>
<path id="Vector_6" d="M6.07812 0.26712V4.42131V17.309H10.7348V4.42131H15.7995V0.26712H6.07812Z" fill="var(--fill-0, #71B219)"/>
<path id="Vector_7" d="M4.70486 0.267118H0.000198588V5.02865H4.70486V0.267118Z" fill="var(--fill-0, #539100)"/>
<path id="Vector_8" d="M38.2969 39.5256V22.7024H42.6055L49.4345 31.6059V22.7024H53.9831V39.5378H49.9625L42.8575 30.3184V39.5378H38.2969V39.5256Z" fill="var(--fill-0, #71B219)"/>
<path id="Vector_9" d="M17.5703 17.103V0.134003H25.4794C27.9158 0.134003 29.728 0.74134 30.9282 1.96816C31.9123 2.97634 32.4044 4.32463 32.4044 6.01303C32.4044 7.252 32.1044 8.30877 31.5043 9.17119C30.8682 10.0579 29.9921 10.7503 28.9839 11.1633L32.9805 17.103H27.6277L24.2433 11.9528H22.215V17.1152L17.5703 17.103ZM22.215 8.28447H25.2874C26.0795 8.28447 26.6916 8.10227 27.1237 7.73787C27.5677 7.37347 27.8078 6.81472 27.7838 6.24382C27.7838 5.60004 27.5677 5.10202 27.1237 4.77406C26.6796 4.43395 26.0675 4.2639 25.2754 4.2639H22.215V8.28447Z" fill="var(--fill-0, #71B219)"/>
<path id="Vector_10" d="M33.7344 17.1029L40.8154 0.146057H45.256L52.337 17.1029H47.3923L46.1801 14.1027H39.7832L38.5951 17.1029H33.7344ZM41.1274 10.4708H44.86L42.9997 5.68498L41.1274 10.4708Z" fill="var(--fill-0, #71B219)"/>
<path id="Vector_11" d="M54.3752 17.1023V0.266934H60.7961C62.1403 0.242641 63.4845 0.461282 64.7566 0.886419C65.8488 1.25082 66.8569 1.83387 67.709 2.61126C68.5012 3.35221 69.1132 4.26322 69.5333 5.25925C69.9654 6.32816 70.1814 7.48211 70.1694 8.64819C70.1814 9.80214 69.9654 10.9439 69.5213 12.0128C69.1012 13.021 68.4772 13.9442 67.685 14.6851C66.8209 15.4747 65.8008 16.082 64.6966 16.4586C63.4124 16.8958 62.0562 17.1145 60.7001 17.1023H54.3752ZM58.9838 13.0089H60.8561C62.2603 13.0089 63.3644 12.6323 64.1925 11.8671C65.0207 11.114 65.4287 10.0451 65.4287 8.67249C65.4287 7.33634 65.0087 6.27958 64.1806 5.51433C63.3524 4.74909 62.2363 4.36039 60.8441 4.36039H58.9718V13.0089H58.9838Z" fill="var(--fill-0, #71B219)"/>
<path id="Vector_12" d="M72.9689 17.1025V0.267118H86.3388V4.23911H77.5295V6.78993H85.5107V10.4704H77.5295V13.1305H86.4588V17.1025H72.9689Z" fill="var(--fill-0, #71B219)"/>
<path id="Vector_13" d="M89.1875 17.1634V0.218658H97.0846C99.521 0.218658 101.333 0.825996 102.521 2.05282C103.506 3.061 103.998 4.40929 103.998 6.09769C103.998 7.33666 103.698 8.39342 103.097 9.25584C102.461 10.1426 101.585 10.8349 100.577 11.2479L104.574 17.1755H99.2209L95.8484 12.0253H93.8202V17.1755L89.1875 17.1634ZM93.8202 8.35698H96.8806C97.6727 8.35698 98.2728 8.17478 98.7169 7.81038C99.1609 7.44598 99.401 6.88723 99.3649 6.31633C99.3649 5.67255 99.1489 5.17453 98.7049 4.84657C98.2608 4.50646 97.6487 4.33641 96.8566 4.33641H93.8202V8.35698Z" fill="var(--fill-0, #71B219)"/>
<path id="Vector_14" d="M105.484 14.6004L108.053 11.503C109.721 12.8513 111.521 13.5193 113.453 13.5193C114.066 13.5193 114.534 13.41 114.858 13.2035C115.17 13.0213 115.362 12.6691 115.338 12.3047C115.338 11.9403 115.146 11.6487 114.762 11.4301C114.378 11.1993 113.646 10.9564 112.541 10.7013C111.977 10.5677 111.485 10.4462 111.077 10.3369C110.657 10.2276 110.225 10.0818 109.757 9.91175C109.349 9.76599 108.941 9.58379 108.569 9.37729C108.233 9.18294 107.909 8.95216 107.609 8.69708C107.321 8.45414 107.069 8.16262 106.865 7.83466C106.661 7.49455 106.517 7.13014 106.421 6.75359C106.3 6.30417 106.252 5.85474 106.252 5.39316C106.216 3.89911 106.853 2.46579 108.005 1.5062C109.169 0.510164 110.741 0 112.709 0C115.434 0 117.714 0.740952 119.55 2.235L117.234 5.52677C115.686 4.42142 114.126 3.87481 112.589 3.87481C112.049 3.87481 111.641 3.98414 111.353 4.19063C111.077 4.37283 110.921 4.6765 110.921 5.00446C110.921 5.39316 111.149 5.74541 111.497 5.91547C111.881 6.13411 112.649 6.37705 113.79 6.64427C114.666 6.82648 115.542 7.08156 116.382 7.38523C117.066 7.64031 117.714 7.98042 118.302 8.40555C118.842 8.7821 119.286 9.29227 119.574 9.88746C119.862 10.5312 120.006 11.2357 119.994 11.9403C119.994 13.6408 119.382 14.9769 118.158 15.9608C116.934 16.9447 115.302 17.4306 113.261 17.4306C111.809 17.4427 110.369 17.1998 108.989 16.7261C107.705 16.2402 106.505 15.5236 105.484 14.6004Z" fill="var(--fill-0, #71B219)"/>
</g>
</svg>
