<svg preserveAspectRatio="none" width="100%" height="100%" overflow="visible" style="display: block;" viewBox="0 0 24 24" fill="none" xmlns="http://www.w3.org/2000/svg">
<g id="wallet (4) 1">
<path id="XMLID_436_" d="M20 16.725V18.175C20 18.9748 19.3589 19.625 18.5714 19.625H6.28571C5.02514 19.625 4 18.5845 4 17.305C4 17.305 4 7.4537 4 7.445C4 6.16552 5.02514 5.125 6.28571 5.125H16.8571C17.3309 5.125 17.7143 5.51476 17.7143 5.995C17.7143 6.47524 17.3309 6.865 16.8571 6.865H6.28571C5.97086 6.865 5.71429 7.12484 5.71429 7.445C5.71429 7.76516 5.97086 8.025 6.28571 8.025H18.5714C19.3589 8.025 20 8.67518 20 9.475V10.925H17.1429C15.5674 10.925 14.2857 12.2259 14.2857 13.825C14.2857 15.4241 15.5674 16.725 17.1429 16.725H20Z" fill="var(--fill-0, white)"/>
<path id="XMLID_438_" d="M20 12.125V15.625H17.1875C16.2554 15.625 15.5 14.8416 15.5 13.875C15.5 12.9084 16.2554 12.125 17.1875 12.125H20Z" fill="var(--fill-0, white)"/>
</g>
</svg>
