<svg preserveAspectRatio="none" width="100%" height="100%" overflow="visible" style="display: block;" viewBox="0 0 32 32" fill="none" xmlns="http://www.w3.org/2000/svg">
<g id="Group">
<path id="Vector" d="M16.004 0H15.996C7.174 0 0 7.176 0 16C0 19.5 1.128 22.744 3.046 25.378L1.052 31.322L7.202 29.356C9.732 31.032 12.75 32 16.004 32C24.826 32 32 24.822 32 16C32 7.178 24.826 0 16.004 0ZM25.314 22.594C24.928 23.684 23.396 24.588 22.174 24.852C21.338 25.03 20.246 25.172 16.57 23.648C11.868 21.7 8.84 16.922 8.604 16.612C8.378 16.302 6.704 14.082 6.704 11.786C6.704 9.49 7.87 8.372 8.34 7.892C8.726 7.498 9.364 7.318 9.976 7.318C10.174 7.318 10.352 7.328 10.512 7.336C10.982 7.356 11.218 7.384 11.528 8.126C11.914 9.056 12.854 11.352 12.966 11.588C13.08 11.824 13.194 12.144 13.034 12.454C12.884 12.774 12.752 12.916 12.516 13.188C12.28 13.46 12.056 13.668 11.82 13.96C11.604 14.214 11.36 14.486 11.632 14.956C11.904 15.416 12.844 16.95 14.228 18.182C16.014 19.772 17.462 20.28 17.98 20.496C18.366 20.656 18.826 20.618 19.108 20.318C19.466 19.932 19.908 19.292 20.358 18.662C20.678 18.21 21.082 18.154 21.506 18.314C21.938 18.464 24.224 19.594 24.694 19.828C25.164 20.064 25.474 20.176 25.588 20.374C25.7 20.572 25.7 21.502 25.314 22.594Z" fill="url(#paint0_linear_0_28)"/>
</g>
<defs>
<linearGradient id="paint0_linear_0_28" x1="-8.39001" y1="16.0029" x2="43.8703" y2="16.0029" gradientUnits="userSpaceOnUse">
<stop stop-color="#2C64EB"/>
<stop offset="0.5" stop-color="#00A875"/>
<stop offset="1" stop-color="#71B219"/>
</linearGradient>
</defs>
</svg>
