<svg preserveAspectRatio="none" width="100%" height="100%" overflow="visible" style="display: block;" viewBox="0 0 26 26" fill="none" xmlns="http://www.w3.org/2000/svg">
<g id="youtube (4) 1">
<path id="Vector" d="M24.6696 6.9076C24.3887 5.86336 23.5654 5.0402 22.5213 4.75902C20.6139 4.23712 12.9841 4.23712 12.9841 4.23712C12.9841 4.23712 5.35454 4.23712 3.44712 4.73923C2.42311 5.02011 1.57972 5.86351 1.29884 6.9076C0.796875 8.81487 0.796875 12.7703 0.796875 12.7703C0.796875 12.7703 0.796875 16.7457 1.29884 18.633C1.58002 19.6771 2.40303 20.5003 3.44727 20.7814C5.37463 21.3035 12.9844 21.3035 12.9844 21.3035C12.9844 21.3035 20.6139 21.3035 22.5213 20.8014C23.5656 20.5203 24.3887 19.6972 24.6699 18.6531C25.1717 16.7457 25.1717 12.7904 25.1717 12.7904C25.1717 12.7904 25.1918 8.81487 24.6696 6.9076ZM10.5549 16.4245V9.11614L16.8995 12.7703L10.5549 16.4245Z" fill="var(--fill-0, white)"/>
</g>
</svg>
